<svg xmlns="http://www.w3.org/2000/svg" xmlns:xlink="http://www.w3.org/1999/xlink" xmlns:lucid="lucid" width="1760" height="1360"><g transform="translate(0 0)" lucid:page-tab-id="0_0"><path d="M0 0h1760v1360H0z" fill="#fff"/><path d="M160 238c0 6.63-26.86 12-60 12s-60-5.37-60-12v-96c0-6.63 26.86-12 60-12s60 5.37 60 12z" stroke="#834187" stroke-width="5" fill="#fff"/><path d="M160 142c0 6.63-26.86 12-60 12s-60-5.37-60-12" stroke="#834187" stroke-width="5" fill="none"/><use xlink:href="#a" transform="matrix(1,0,0,1,45,159) translate(35.525 35.8)"/><use xlink:href="#b" transform="matrix(1,0,0,1,45,159) translate(14.074999999999996 57.4)"/><path d="M460 168c0 6.63-26.86 12-60 12s-60-5.37-60-12V72c0-6.63 26.86-12 60-12s60 5.37 60 12z" stroke="#19967d" stroke-width="5" fill="#fff"/><path d="M460 72c0 6.63-26.86 12-60 12s-60-5.37-60-12" stroke="#19967d" stroke-width="5" fill="none"/><use xlink:href="#c" transform="matrix(1,0,0,1,345,89) translate(34.575 35.8)"/><use xlink:href="#d" transform="matrix(1,0,0,1,345,89) translate(14.074999999999996 57.4)"/><path d="M460 328c0 6.63-26.86 12-60 12s-60-5.37-60-12v-96c0-6.63 26.86-12 60-12s60 5.37 60 12z" stroke="#19967d" stroke-width="5" fill="#fff"/><path d="M460 232c0 6.63-26.86 12-60 12s-60-5.37-60-12" stroke="#19967d" stroke-width="5" fill="none"/><use xlink:href="#e" transform="matrix(1,0,0,1,345,249) translate(36.05 35.8)"/><use xlink:href="#d" transform="matrix(1,0,0,1,345,249) translate(14.074999999999996 57.4)"/><path d="M720 168c0 6.63-26.86 12-60 12s-60-5.37-60-12V72c0-6.63 26.86-12 60-12s60 5.37 60 12z" stroke="#19967d" stroke-width="5" fill="#fff"/><path d="M720 72c0 6.63-26.86 12-60 12s-60-5.37-60-12" stroke="#19967d" stroke-width="5" fill="none"/><use xlink:href="#f" transform="matrix(1,0,0,1,605,89) translate(6.124999999999993 25)"/><use xlink:href="#g" transform="matrix(1,0,0,1,605,89) translate(49.025 25)"/><use xlink:href="#h" transform="matrix(1,0,0,1,605,89) translate(35.55 46.6)"/><use xlink:href="#i" transform="matrix(1,0,0,1,605,89) translate(13.524999999999999 68.2)"/><path d="M940 328c0 6.63-26.86 12-60 12s-60-5.37-60-12v-96c0-6.63 26.86-12 60-12s60 5.37 60 12z" stroke="#19967d" stroke-width="5" fill="#fff"/><path d="M940 232c0 6.63-26.86 12-60 12s-60-5.37-60-12" stroke="#19967d" stroke-width="5" fill="none"/><use xlink:href="#f" transform="matrix(1,0,0,1,825,249) translate(10.799999999999997 25)"/><use xlink:href="#j" transform="matrix(1,0,0,1,825,249) translate(53.7 25)"/><use xlink:href="#h" transform="matrix(1,0,0,1,825,249) translate(35.55 46.6)"/><use xlink:href="#i" transform="matrix(1,0,0,1,825,249) translate(13.524999999999999 68.2)"/><path d="M162.5 190h89.26" stroke="#000" stroke-width="2" fill="none"/><path d="M162.5 191H160v-2h2.5z"/><path d="M266.76 190l-14.26 4.64v-9.28z" stroke="#000" stroke-width="2"/><use xlink:href="#k" transform="matrix(1,0,0,1,180.38399470899475,164.39999999999998) translate(0 14.4)"/><path d="M220 40h100v300H220z" fill="none"/><path d="M320 340c-10.36 0-18.75-8.4-18.75-18.75v-112.5c0-10.36-8.4-18.75-18.75-18.75 10.36 0 18.75-8.4 18.75-18.75V58.75C301.25 48.4 309.65 40 320 40" stroke="#000" stroke-width="2" fill="none"/><path d="M463.26 280.64l-1.52-1.28 57.84-68.56h2.62zM586.5 134.58l-46.08 54.62h-2.62l47.18-55.9z"/><path d="M463.26 280.64l-1.93 2.3-1.33-1.12v-.4l1.74-2.06zM589.76 136.37l-7.1-5.98 12.75-7.93z"/><path d="M590.16 138.02l-9.2-7.76L597.5 120zm-5.8-7.5l5 4.2 3.97-9.77z"/><use xlink:href="#l" transform="matrix(1,0,0,1,510,189.2) translate(0 14.4)"/><path d="M722.5 165.45l80.25 58.37" stroke="#000" stroke-width="2" fill="none"/><path d="M723.1 164.65l-1.2 1.6-1.9-1.38v-1.08l.66-.92zM814.88 232.64L800.62 228l5.45-7.5z"/><path d="M817.5 234.55l-18.5-6.02 7.07-9.73zm-15.26-7.07l10.03 3.26-6.2-8.54z"/><g><use xlink:href="#m" transform="matrix(1,0,0,1,759.5461438781247,170.96890015499372) translate(0 14.4)"/></g><path d="M472.7 281h-10.2v-2h10.2zm30.62 0h-20.4v-2h20.4zm30.6 0h-20.4v-2h20.4zm30.63 0h-20.4v-2h20.4zm30.6 0h-20.4v-2h20.4zm24.85 0h-14.63v-2H620zm67 0h-20.4v-2H687zm30.62 0h-20.4v-2h20.4zm30.62 0h-20.4v-2h20.4zm30.6 0h-20.4v-2h20.4zm20.42 0h-10.2v-2h10.2zM462.5 281H460v-2h2.5zM814.26 280L800 284.64v-9.28z"/><path d="M817.5 280l-18.5 6v-12zm-16.5 3.26l10.03-3.26-10.03-3.26z"/><g><use xlink:href="#m" transform="matrix(1,0,0,1,620,269.2) translate(0 14.4)"/></g><defs><path fill="#834187" d="M67-125c0 54 23 88 75 88 28 0 53-7 68-21v-34h-60v-39h108v91C232-14 192 4 140 4 58 4 20-42 15-125 8-236 126-280 215-234c19 10 29 26 37 47l-47 15c-11-23-29-39-63-39-53 1-75 33-75 86" id="n"/><path fill="#834187" d="M67-125c0 53 21 87 73 88 37 1 54-22 65-47l45 17C233-25 199 4 140 4 58 4 20-42 15-125 8-235 124-281 211-232c18 10 29 29 36 50l-46 12c-8-25-30-41-62-41-52 0-71 34-72 86" id="o"/><path fill="#834187" d="M24 0v-248h195v40H76v63h132v40H76v65h150V0H24" id="p"/><g id="a"><use transform="matrix(0.05,0,0,0.05,0,0)" xlink:href="#n"/><use transform="matrix(0.05,0,0,0.05,14,0)" xlink:href="#o"/><use transform="matrix(0.05,0,0,0.05,26.950000000000003,0)" xlink:href="#p"/></g><path fill="#834187" d="M230 0l2-204L168 0h-37L68-204 70 0H24v-248h70l56 185 57-185h69V0h-46" id="q"/><path fill="#834187" d="M185-48c-13 30-37 53-82 52C43 2 14-33 14-96s30-98 90-98c62 0 83 45 84 108H66c0 31 8 55 39 56 18 0 30-7 34-22zm-45-69c5-46-57-63-70-21-2 6-4 13-4 21h74" id="r"/><path fill="#834187" d="M115-3C79 11 28 4 28-45v-112H4v-33h27l15-45h31v45h36v33H77v99c-1 23 16 31 38 25v30" id="s"/><path fill="#834187" d="M133-34C117-15 103 5 69 4 32 3 11-16 11-54c-1-60 55-63 116-61 1-26-3-47-28-47-18 1-26 9-28 27l-52-2c7-38 36-58 82-57s74 22 75 68l1 82c-1 14 12 18 25 15v27c-30 8-71 5-69-32zm-48 3c29 0 43-24 42-57-32 0-66-3-65 30 0 17 8 27 23 27" id="t"/><path fill="#834187" d="M135-194c52 0 70 43 70 98 0 56-19 99-73 100-30 1-46-15-58-35L72 0H24l1-261h50v104c11-23 29-37 60-37zM114-30c31 0 40-27 40-66 0-37-7-63-39-63s-41 28-41 65c0 36 8 64 40 64" id="u"/><path fill="#834187" d="M137-138c1-29-70-34-71-4 15 46 118 7 119 86 1 83-164 76-172 9l43-7c4 19 20 25 44 25 33 8 57-30 24-41C81-84 22-81 20-136c-2-80 154-74 161-7" id="v"/><g id="b"><use transform="matrix(0.05,0,0,0.05,0,0)" xlink:href="#q"/><use transform="matrix(0.05,0,0,0.05,14.950000000000001,0)" xlink:href="#r"/><use transform="matrix(0.05,0,0,0.05,24.950000000000003,0)" xlink:href="#s"/><use transform="matrix(0.05,0,0,0.05,30.900000000000002,0)" xlink:href="#t"/><use transform="matrix(0.05,0,0,0.05,40.900000000000006,0)" xlink:href="#u"/><use transform="matrix(0.05,0,0,0.05,51.85,0)" xlink:href="#t"/><use transform="matrix(0.05,0,0,0.05,61.85,0)" xlink:href="#v"/><use transform="matrix(0.05,0,0,0.05,71.85000000000001,0)" xlink:href="#r"/></g><path fill="#19967d" d="M230 0l2-204L168 0h-37L68-204 70 0H24v-248h70l56 185 57-185h69V0h-46" id="w"/><path fill="#19967d" d="M67-125c0 53 21 87 73 88 37 1 54-22 65-47l45 17C233-25 199 4 140 4 58 4 20-42 15-125 8-235 124-281 211-232c18 10 29 29 36 50l-46 12c-8-25-30-41-62-41-52 0-71 34-72 86" id="x"/><path fill="#19967d" d="M240-174c0 40-23 61-54 70L253 0h-59l-57-94H76V0H24v-248c93 4 217-23 216 74zM76-134c48-2 112 12 112-38 0-48-66-32-112-35v73" id="y"/><g id="c"><use transform="matrix(0.05,0,0,0.05,0,0)" xlink:href="#w"/><use transform="matrix(0.05,0,0,0.05,14.950000000000001,0)" xlink:href="#x"/><use transform="matrix(0.05,0,0,0.05,27.900000000000002,0)" xlink:href="#y"/></g><path fill="#19967d" d="M185-48c-13 30-37 53-82 52C43 2 14-33 14-96s30-98 90-98c62 0 83 45 84 108H66c0 31 8 55 39 56 18 0 30-7 34-22zm-45-69c5-46-57-63-70-21-2 6-4 13-4 21h74" id="z"/><path fill="#19967d" d="M115-3C79 11 28 4 28-45v-112H4v-33h27l15-45h31v45h36v33H77v99c-1 23 16 31 38 25v30" id="A"/><path fill="#19967d" d="M133-34C117-15 103 5 69 4 32 3 11-16 11-54c-1-60 55-63 116-61 1-26-3-47-28-47-18 1-26 9-28 27l-52-2c7-38 36-58 82-57s74 22 75 68l1 82c-1 14 12 18 25 15v27c-30 8-71 5-69-32zm-48 3c29 0 43-24 42-57-32 0-66-3-65 30 0 17 8 27 23 27" id="B"/><path fill="#19967d" d="M135-194c52 0 70 43 70 98 0 56-19 99-73 100-30 1-46-15-58-35L72 0H24l1-261h50v104c11-23 29-37 60-37zM114-30c31 0 40-27 40-66 0-37-7-63-39-63s-41 28-41 65c0 36 8 64 40 64" id="C"/><path fill="#19967d" d="M137-138c1-29-70-34-71-4 15 46 118 7 119 86 1 83-164 76-172 9l43-7c4 19 20 25 44 25 33 8 57-30 24-41C81-84 22-81 20-136c-2-80 154-74 161-7" id="D"/><g id="d"><use transform="matrix(0.05,0,0,0.05,0,0)" xlink:href="#w"/><use transform="matrix(0.05,0,0,0.05,14.950000000000001,0)" xlink:href="#z"/><use transform="matrix(0.05,0,0,0.05,24.950000000000003,0)" xlink:href="#A"/><use transform="matrix(0.05,0,0,0.05,30.900000000000002,0)" xlink:href="#B"/><use transform="matrix(0.05,0,0,0.05,40.900000000000006,0)" xlink:href="#C"/><use transform="matrix(0.05,0,0,0.05,51.85,0)" xlink:href="#B"/><use transform="matrix(0.05,0,0,0.05,61.85,0)" xlink:href="#D"/><use transform="matrix(0.05,0,0,0.05,71.85000000000001,0)" xlink:href="#z"/></g><path fill="#19967d" d="M169-182c-1-43-94-46-97-3 18 66 151 10 154 114 3 95-165 93-204 36-6-8-10-19-12-30l50-8c3 46 112 56 116 5-17-69-150-10-154-114-4-87 153-88 188-35 5 8 8 18 10 28" id="E"/><path fill="#19967d" d="M182-130c37 4 62 22 62 59C244 23 116-4 24 0v-248c84 5 203-23 205 63 0 31-19 50-47 55zM76-148c40-3 101 13 101-30 0-44-60-28-101-31v61zm0 110c48-3 116 14 116-37 0-48-69-32-116-35v72" id="F"/><g id="e"><use transform="matrix(0.05,0,0,0.05,0,0)" xlink:href="#E"/><use transform="matrix(0.05,0,0,0.05,12,0)" xlink:href="#F"/><use transform="matrix(0.05,0,0,0.05,24.950000000000003,0)" xlink:href="#x"/></g><g id="f"><use transform="matrix(0.05,0,0,0.05,0,0)" xlink:href="#E"/><use transform="matrix(0.05,0,0,0.05,12,0)" xlink:href="#F"/><use transform="matrix(0.05,0,0,0.05,24.950000000000003,0)" xlink:href="#x"/></g><path fill="#19967d" d="M140-251c80 0 125 45 125 126S219 4 139 4C58 4 15-44 15-125s44-126 125-126zm-1 214c52 0 73-35 73-88 0-50-21-86-72-86-52 0-73 35-73 86s22 88 72 88" id="G"/><path fill="#19967d" d="M175 0L67-191c6 58 2 128 3 191H24v-248h59L193-55c-6-58-2-129-3-193h46V0h-61" id="H"/><g id="g"><use transform="matrix(0.05,0,0,0.05,0,0)" xlink:href="#w"/><use transform="matrix(0.05,0,0,0.05,14.950000000000001,0)" xlink:href="#F"/><use transform="matrix(0.05,0,0,0.05,27.900000000000002,0)" xlink:href="#G"/><use transform="matrix(0.05,0,0,0.05,41.900000000000006,0)" xlink:href="#H"/></g><path fill="#19967d" d="M24-248c120-7 223 5 221 122C244-46 201 0 124 0H24v-248zM76-40c74 7 117-18 117-86 0-67-45-88-117-82v168" id="I"/><g id="h"><use transform="matrix(0.05,0,0,0.05,0,0)" xlink:href="#I"/><use transform="matrix(0.05,0,0,0.05,12.950000000000001,0)" xlink:href="#B"/><use transform="matrix(0.05,0,0,0.05,22.950000000000003,0)" xlink:href="#A"/><use transform="matrix(0.05,0,0,0.05,28.900000000000002,0)" xlink:href="#B"/></g><path fill="#19967d" d="M24-248c93 1 206-16 204 79-1 75-69 88-152 82V0H24v-248zm52 121c47 0 100 7 100-41 0-47-54-39-100-39v80" id="J"/><path fill="#19967d" d="M190-63c-7 42-38 67-86 67-59 0-84-38-90-98-12-110 154-137 174-36l-49 2c-2-19-15-32-35-32-30 0-35 28-38 64-6 74 65 87 74 30" id="K"/><path fill="#19967d" d="M147 0L96-86 75-71V0H25v-261h50v150l67-79h53l-66 74L201 0h-54" id="L"/><path fill="#19967d" d="M195-6C206 82 75 100 31 46c-4-6-6-13-8-21l49-6c3 16 16 24 34 25 40 0 42-37 40-79-11 22-30 35-61 35-53 0-70-43-70-97 0-56 18-96 73-97 30 0 46 14 59 34l2-30h47zm-90-29c32 0 41-27 41-63 0-35-9-62-40-62-32 0-39 29-40 63 0 36 9 62 39 62" id="M"/><g id="i"><use transform="matrix(0.05,0,0,0.05,0,0)" xlink:href="#J"/><use transform="matrix(0.05,0,0,0.05,12,0)" xlink:href="#B"/><use transform="matrix(0.05,0,0,0.05,22,0)" xlink:href="#K"/><use transform="matrix(0.05,0,0,0.05,32,0)" xlink:href="#L"/><use transform="matrix(0.05,0,0,0.05,42,0)" xlink:href="#B"/><use transform="matrix(0.05,0,0,0.05,52,0)" xlink:href="#M"/><use transform="matrix(0.05,0,0,0.05,62.95,0)" xlink:href="#z"/><use transform="matrix(0.05,0,0,0.05,72.95,0)" xlink:href="#D"/></g><path fill="#19967d" d="M24 0v-248h52v208h133V0H24" id="N"/><path fill="#19967d" d="M136-208V0H84v-208H4v-40h212v40h-80" id="O"/><path fill="#19967d" d="M24 0v-248h195v40H76v63h132v40H76v65h150V0H24" id="P"/><g id="j"><use transform="matrix(0.05,0,0,0.05,0,0)" xlink:href="#N"/><use transform="matrix(0.05,0,0,0.05,9.600000000000001,0)" xlink:href="#O"/><use transform="matrix(0.05,0,0,0.05,20.550000000000004,0)" xlink:href="#P"/><use transform="matrix(0.05,0,0,0.05,32.550000000000004,0)" xlink:href="#y"/></g><path d="M101-251c82-7 93 87 43 132L82-64C71-53 59-42 53-27h129V0H18c2-99 128-94 128-182 0-28-16-43-45-43s-46 15-49 41l-32-3c6-41 34-60 81-64" id="Q"/><path d="M101-251c68 0 85 55 85 127S166 4 100 4C33 4 14-52 14-124c0-73 17-127 87-127zm-1 229c47 0 54-49 54-102s-4-102-53-102c-51 0-55 48-55 102 0 53 5 102 54 102" id="R"/><path d="M27 0v-27h64v-190l-56 39v-29l58-41h29v221h61V0H27" id="S"/><g id="k"><use transform="matrix(0.05,0,0,0.05,0,0)" xlink:href="#Q"/><use transform="matrix(0.05,0,0,0.05,10,0)" xlink:href="#R"/><use transform="matrix(0.05,0,0,0.05,20,0)" xlink:href="#S"/><use transform="matrix(0.05,0,0,0.05,28.649999999999995,0)" xlink:href="#S"/></g><path d="M54-142c48-35 137-8 131 61C196 18 31 33 14-55l32-4c7 23 22 37 52 37 35-1 51-22 54-58 4-55-73-65-99-34H22l8-134h141v27H59" id="T"/><g id="l"><use transform="matrix(0.05,0,0,0.05,0,0)" xlink:href="#Q"/><use transform="matrix(0.05,0,0,0.05,10,0)" xlink:href="#R"/><use transform="matrix(0.05,0,0,0.05,20,0)" xlink:href="#S"/><use transform="matrix(0.05,0,0,0.05,30,0)" xlink:href="#T"/></g><path d="M134-131c28 9 52 24 51 62-1 50-34 73-85 73S17-19 16-69c0-36 21-54 49-61-75-25-45-126 34-121 46 3 78 18 79 63 0 33-17 51-44 57zm-34-11c31 1 46-15 46-44 0-28-17-43-47-42-29 0-46 13-45 42 1 28 16 44 46 44zm1 122c35 0 51-18 51-52 0-30-18-46-53-46-33 0-51 17-51 47 0 34 19 51 53 51" id="U"/><g id="m"><use transform="matrix(0.05,0,0,0.05,0,0)" xlink:href="#Q"/><use transform="matrix(0.05,0,0,0.05,10,0)" xlink:href="#R"/><use transform="matrix(0.05,0,0,0.05,20,0)" xlink:href="#S"/><use transform="matrix(0.05,0,0,0.05,30,0)" xlink:href="#U"/></g></defs></g></svg>